<svg xmlns="http://www.w3.org/2000/svg" xmlns:xlink="http://www.w3.org/1999/xlink" width="870" height="300" viewBox="0 0 870 300">
  <defs>
    <clipPath id="clip-Nokia_Logo_870x300px-white">
      <rect width="870" height="300"/>
    </clipPath>
  </defs>
  <g id="Nokia_Logo_870x300px-white" data-name="Nokia Logo 870x300px-white" clip-path="url(#clip-Nokia_Logo_870x300px-white)">
    <path id="Path_2" data-name="Path 2" d="M598.383,5.932v183.2h28.687V5.932ZM291.883,2.8c-55.889,0-99.252,38.958-99.252,94.73,0,58.282,43.363,94.727,99.252,94.727s99.344-36.445,99.255-94.727C391.055,44.69,347.773,2.806,291.883,2.8M362.5,97.532c0,41.288-31.616,68.648-70.617,68.648S221.27,138.82,221.27,97.532c0-40.54,31.616-68.648,70.614-68.648S362.5,56.992,362.5,97.532M0,0V189.13H29.277V64.143L181.426,195.062V155.849ZM412.715,97.532l106.471,91.6h42.689l-106.628-91.6,106.628-91.6H519.186Zm452.928,91.6H834.084L811,148.561H706.475L683.394,189.13H651.836l38.221-67.616H795.995l-52.823-93.97L758.739,0V0Z" transform="translate(2 52)" fill="#fff"/>
    <rect id="Rectangle_6" data-name="Rectangle 6" width="302.058" height="68.064" transform="translate(1 2)" fill="none"/>
  </g>
</svg>
